<?xml version="1.0" standalone="no"?>
<!DOCTYPE svg PUBLIC "-//W3C//DTD SVG 20010904//EN"
 "http://www.w3.org/TR/2001/REC-SVG-20010904/DTD/svg10.dtd">
<svg version="1.0" xmlns="http://www.w3.org/2000/svg"
 width="512.000000pt" height="512.000000pt" viewBox="0 0 512.000000 512.000000"
 preserveAspectRatio="xMidYMid meet">
<metadata>
Created by potrace 1.14, written by Peter Selinger 2001-2017
</metadata>
<g transform="translate(0.000000,512.000000) scale(0.100000,-0.100000)"
fill="#000000" stroke="none">
<path d="M2650 4683 c-8 -3 -36 -21 -61 -39 -25 -18 -83 -47 -129 -64 -47 -17
-90 -36 -96 -41 -8 -7 -14 -6 -17 3 -4 9 -11 7 -25 -9 -26 -29 -32 -29 -32 3
0 23 -2 24 -20 11 -11 -8 -36 -35 -56 -60 -29 -37 -51 -52 -122 -82 -212 -90
-306 -184 -347 -345 -23 -87 -43 -285 -51 -494 -7 -185 -10 -196 -63 -196 -38
0 -54 -14 -53 -46 0 -16 -5 -35 -12 -43 -18 -23 -11 -152 12 -202 23 -54 45
-74 99 -93 l42 -15 3 37 3 37 28 -57 c76 -156 259 -257 414 -229 128 24 304
148 383 271 l32 50 22 -32 c23 -34 53 -52 43 -25 -4 11 0 13 15 9 11 -2 22
-11 25 -18 7 -19 39 -18 47 1 6 17 33 20 38 4 5 -16 34 0 46 27 14 30 26 31
40 0 17 -38 131 -154 197 -201 154 -110 305 -121 454 -32 63 38 140 125 167
191 18 44 34 60 34 33 0 -7 -9 -58 -21 -112 -60 -290 -235 -460 -545 -529 -60
-13 -99 -25 -87 -25 12 -1 52 6 90 14 239 50 400 161 488 335 34 67 63 155 72
215 3 25 8 45 12 45 3 0 7 45 7 100 2 137 8 162 43 183 16 9 39 17 50 17 72 0
34 -224 -46 -272 -18 -11 -22 -18 -12 -18 30 0 68 40 88 96 25 65 28 161 7
190 -8 10 -13 28 -10 39 7 30 -10 47 -52 54 l-39 7 3 84 c2 47 12 132 23 189
46 255 15 390 -127 555 -91 104 -183 179 -274 224 l-76 37 25 21 24 21 -61 -5
c-56 -4 -69 -1 -138 33 -69 34 -81 37 -136 32 -55 -5 -60 -4 -70 19 -13 28
-28 32 -28 7 0 -12 -7 -7 -20 15 -24 39 -29 40 -27 6 3 -43 -16 -38 -82 21
-62 55 -93 66 -141 48z m394 -469 c59 -15 176 -72 176 -85 0 -4 -10 -10 -22
-13 -19 -5 -14 -10 32 -26 30 -11 77 -20 105 -20 59 0 125 -37 169 -95 33 -42
32 -47 -1 -39 l-27 7 36 -44 c68 -85 75 -121 14 -74 -51 39 -44 19 20 -59 31
-37 53 -70 51 -73 -3 -2 8 -17 25 -32 27 -24 31 -35 35 -98 l6 -71 -62 59
c-64 63 -125 96 -221 120 -77 19 -1234 19 -1325 0 -86 -19 -176 -62 -229 -111
-25 -24 -46 -40 -46 -36 0 22 35 79 79 126 49 53 69 89 34 58 -56 -48 -53 -31
9 43 43 53 47 65 17 48 -17 -8 -20 -8 -14 1 5 9 1 10 -15 5 -19 -6 -21 -5 -11
13 6 12 38 55 71 96 60 76 65 91 22 60 -37 -25 -37 -9 -2 46 73 113 233 199
372 200 l46 0 -5 -38 c-5 -35 -1 -43 32 -75 38 -37 82 -54 55 -22 -7 8 -8 15
-2 15 5 0 15 -7 22 -15 20 -24 86 -38 112 -23 22 12 22 13 -12 18 -27 4 -37
11 -44 33 -19 53 31 91 50 38 13 -34 49 -60 99 -71 l35 -8 0 40 c0 50 13 74
53 98 41 25 171 27 261 4z m-626 -623 c29 -13 68 -41 86 -63 38 -44 76 -152
76 -215 0 -58 -36 -168 -75 -228 -67 -103 -205 -213 -303 -241 -248 -72 -478
191 -419 480 42 204 192 299 462 293 100 -2 129 -7 173 -26z m458 -12 c-39
-46 -67 -101 -85 -169 l-12 -45 -75 0 c-70 -1 -74 0 -74 22 0 42 -45 135 -88
184 l-44 49 207 0 207 0 -36 -41z m467 25 c100 -23 154 -50 209 -106 134 -138
126 -404 -18 -558 -99 -106 -234 -135 -358 -77 -74 34 -185 124 -231 187 -91
124 -119 267 -75 383 49 131 140 184 318 186 46 1 115 -6 155 -15z m-596 -322
c12 -7 50 -93 67 -149 6 -20 4 -23 -21 -24 l-28 -2 28 -4 c30 -5 37 -32 12
-53 -12 -10 -15 -10 -15 4 0 10 -8 16 -23 16 -28 0 -47 -17 -47 -42 0 -10 -4
-18 -10 -18 -5 0 -10 8 -10 18 0 38 -54 59 -67 26 -6 -15 -8 -15 -20 2 -20 28
-16 44 15 45 l27 2 -27 4 c-16 2 -28 8 -28 12 0 16 44 116 62 144 19 27 58 36
85 19z m-1109 -8 c15 -4 21 -12 18 -21 -3 -8 -2 -12 3 -9 18 11 31 -23 42
-105 11 -82 13 -139 4 -147 -11 -11 -78 44 -95 79 -25 47 -36 144 -21 182 11
29 14 30 49 21z"/>
<path d="M2011 3547 c-28 -17 -50 -53 -51 -84 l0 -22 38 22 c32 19 50 22 142
21 107 -1 290 -33 316 -55 11 -9 14 -6 14 18 0 68 -90 101 -300 109 -105 4
-140 2 -159 -9z"/>
<path d="M3071 3479 c-81 -14 -105 -28 -109 -67 -3 -31 -3 -32 25 -21 17 7 97
12 198 13 167 1 172 0 223 -26 56 -29 61 -26 41 31 -15 43 -52 59 -161 71
-108 11 -143 11 -217 -1z"/>
<path d="M2487 2358 c2 -5 18 -8 36 -8 l31 0 -34 -35 c-18 -19 -53 -41 -78
-49 -98 -34 -170 -93 -211 -175 -22 -42 -59 -224 -63 -310 l-3 -55 75 -23 c41
-13 76 -25 77 -27 2 -2 -3 -104 -12 -227 -22 -323 -24 -299 33 -330 38 -21
195 -108 660 -365 1 0 -1 -18 -6 -39 -8 -39 -8 -39 -100 -69 -51 -17 -92 -33
-92 -36 0 -20 323 52 427 95 84 34 108 85 124 269 7 80 15 126 25 137 8 9 39
19 69 23 117 13 207 68 235 141 20 51 15 212 -10 306 -45 174 -118 303 -254
446 -102 107 -162 150 -284 201 -55 24 -67 33 -74 58 -4 17 -19 41 -32 53 -25
23 -28 23 -284 25 -143 0 -258 -2 -255 -6z m351 -42 c-1 -19 3 -41 10 -48 13
-16 -11 -42 -97 -108 -24 -19 -52 -47 -62 -64 -16 -27 -19 -28 -25 -10 -4 10
-29 49 -56 85 -26 37 -48 71 -48 76 0 6 15 14 33 20 29 8 32 12 30 46 l-2 37
110 0 110 0 -3 -34z m-80 -447 c24 -12 49 -34 58 -50 16 -33 26 -38 22 -12 -7
40 97 11 107 -29 5 -20 13 -23 60 -25 30 -1 70 -9 90 -19 132 -62 208 -330
133 -467 -31 -56 -55 -58 -107 -12 -22 20 -43 45 -46 56 -4 13 -16 19 -34 19
-38 0 -65 31 -59 69 2 17 1 28 -4 25 -13 -8 -46 14 -53 36 -4 11 0 29 9 42 24
33 19 45 -5 14 -24 -30 -75 -60 -89 -51 -6 4 -10 -19 -10 -59 0 -35 -3 -72 -6
-81 -27 -68 -279 -88 -354 -27 -19 15 -23 37 -40 222 -27 286 -28 276 20 321
24 23 56 42 82 48 62 14 175 4 226 -20z"/>
<path d="M2519 1811 c-39 -13 -69 -31 -69 -41 0 -42 199 -61 273 -26 44 22 47
38 10 56 -33 15 -177 23 -214 11z"/>
<path d="M2290 1041 c0 -4 11 -13 25 -19 32 -15 32 -28 -1 -36 -15 -4 -24 -10
-21 -13 4 -3 20 0 36 7 27 11 35 9 83 -18 l53 -31 -45 -20 c-25 -11 -39 -21
-32 -21 8 0 30 7 49 16 33 16 36 16 76 -6 74 -40 75 -45 9 -64 l-59 -18 -43
28 c-24 16 -50 34 -59 39 -9 6 -27 18 -40 28 -36 26 -50 21 -17 -6 l29 -24
-33 -11 c-18 -7 -31 -15 -28 -18 3 -3 21 1 41 9 33 14 36 14 81 -15 50 -33 51
-43 6 -53 -16 -4 -33 -11 -36 -17 -4 -6 -1 -8 7 -5 76 31 87 31 131 1 24 -15
49 -32 56 -37 7 -5 12 -6 12 -1 0 5 -18 20 -40 34 -22 14 -39 29 -37 34 2 5
26 17 54 27 40 13 55 15 71 5 11 -6 42 -23 68 -39 26 -15 49 -25 51 -23 3 2
-21 19 -51 37 -53 32 -69 49 -46 49 6 0 10 5 10 10 0 6 -8 5 -19 -2 -16 -10
-26 -9 -53 6 -63 34 -75 46 -58 56 11 8 8 10 -15 8 -18 -1 -47 9 -72 25 -44
28 -52 41 -30 51 6 3 -1 4 -16 1 -19 -4 -41 1 -63 14 -19 11 -34 17 -34 12z"/>
</g>
</svg>
